<?xml version="1.0" encoding="utf-8"?>
<!DOCTYPE svg PUBLIC "-//W3C//DTD SVG 1.0//EN" "http://www.w3.org/TR/2001/REC-SVG-20010904/DTD/svg10.dtd">
<svg version="1.0" xmlns="http://www.w3.org/2000/svg" width="500px" height="500px" viewBox="0 0 500 500" preserveAspectRatio="xMidYMid meet" style="filter: drop-shadow(0 0 10px #ffffff);">
 <g fill="#222222">
  <path d="M372.6 420.1 l-47.9 -13.7 -8.6 3.7 c-48.9 21 -104.2 19.1 -152.1 -5.2 -15.4 -7.9 -27.3 -16.1 -39.7 -27.4 -41.6 -38.1 -63.3 -94.9 -57.2 -150.3 3.8 -35.3 17.6 -68.4 39.7 -95.5 l5.5 -6.8 25 24.9 24.9 24.9 -4.7 6.4 c-9 12.2 -16.7 30.3 -19.5 45.8 -1.6 9 -1.4 29.1 0.5 38.7 7.9 41.3 38.5 74.2 79.3 85.2 8.7 2.3 11.6 2.6 27.2 2.6 15.3 0.1 18.6 -0.2 26.5 -2.3 15.2 -4 27.5 -9.9 40.8 -19.7 l3.8 -2.8 52.7 52.7 c29 29 52.5 52.7 52.2 52.6 -0.3 0 -22.1 -6.3 -48.4 -13.8z"/>
 </g>
 <g fill="#0082ff">
  <path d="M380.8 367.2 l-51.6 -51.7 5 -7 c23.3 -32.6 26.7 -74.2 8.9 -111 -22.8 -47.4 -77 -71.5 -127.8 -56.9 -11.3 3.2 -25.4 10.1 -33.6 16.3 l-6.5 4.8 -24.8 -24.9 c-14.7 -14.7 -24.5 -25.1 -23.8 -25.6 0.5 -0.4 4.1 -3.2 8 -6.3 19.9 -16.2 45.3 -28.2 72.5 -34.3 80.2 -17.9 163.6 22.6 199.4 96.8 11.6 24.2 16.5 44.5 17.2 72.4 0.8 28.2 -2.8 49 -12.7 73.3 l-4.7 11.8 13.2 46.8 c7.3 25.7 13.2 46.9 13.1 47 -0.1 0.1 -23.4 -23 -51.8 -51.5z"/>
 </g>
</svg>